<?xml version="1.0" encoding="utf-8"?>
<!-- Generator: Adobe Illustrator 16.0.0, SVG Export Plug-In . SVG Version: 6.00 Build 0)  -->
<!DOCTYPE svg PUBLIC "-//W3C//DTD SVG 1.1//EN" "http://www.w3.org/Graphics/SVG/1.1/DTD/svg11.dtd">
<svg version="1.1" id="Layer_1" xmlns="http://www.w3.org/2000/svg" xmlns:xlink="http://www.w3.org/1999/xlink" x="0px" y="0px"
	 width="65.118px" height="65.941px" viewBox="0 0 65.118 65.941" enable-background="new 0 0 65.118 65.941" xml:space="preserve">
<linearGradient id="SVGID_1_" gradientUnits="userSpaceOnUse" x1="32.5591" y1="5.083" x2="32.5591" y2="60.4053">
	<stop  offset="0" style="stop-color:#32B2CF"/>
	<stop  offset="0.9968" style="stop-color:#26889E"/>
</linearGradient>
<path fill="url(#SVGID_1_)" d="M4.898,5.083v55.322H60.22V5.083H4.898z M47.224,25.223c0.015,0.324,0.022,0.65,0.022,0.979
	c0,10-7.611,21.528-21.529,21.528c-4.273,0-8.25-1.252-11.599-3.399c0.591,0.07,1.193,0.106,1.804,0.106
	c3.545,0,6.808-1.209,9.398-3.239c-3.312-0.061-6.106-2.249-7.068-5.255c0.462,0.088,0.935,0.137,1.423,0.137
	c0.69,0,1.358-0.093,1.994-0.266c-3.462-0.696-6.07-3.754-6.07-7.42c0-0.033,0-0.064,0.001-0.096
	c1.02,0.566,2.187,0.908,3.427,0.947c-2.03-1.357-3.367-3.674-3.367-6.299c0-1.387,0.372-2.686,1.024-3.804
	c3.733,4.578,9.308,7.591,15.596,7.905c-0.129-0.554-0.195-1.131-0.195-1.724c0-4.178,3.388-7.566,7.566-7.566
	c2.176,0,4.143,0.919,5.522,2.39c1.724-0.34,3.343-0.969,4.806-1.836c-0.565,1.767-1.766,3.25-3.326,4.186
	c1.529-0.182,2.987-0.59,4.345-1.191C49.984,22.823,48.701,24.155,47.224,25.223z"/>
</svg>
