<?xml version="1.0" encoding="utf-8"?>
<!-- Generator: Adobe Illustrator 16.0.0, SVG Export Plug-In . SVG Version: 6.00 Build 0)  -->
<!DOCTYPE svg PUBLIC "-//W3C//DTD SVG 1.1//EN" "http://www.w3.org/Graphics/SVG/1.1/DTD/svg11.dtd">
<svg version="1.1" id="Layer_1" xmlns="http://www.w3.org/2000/svg" xmlns:xlink="http://www.w3.org/1999/xlink" x="0px" y="0px"
	 width="45.517px" height="46.5px" viewBox="0 0 45.517 46.5" enable-background="new 0 0 45.517 46.5" xml:space="preserve">
<path fill="#FFFFFF" d="M22.695,2.384c-11.522,0-20.863,9.342-20.863,20.866c0,11.523,9.341,20.866,20.863,20.866
	c11.524,0,20.867-9.343,20.867-20.866C43.562,11.726,34.219,2.384,22.695,2.384z M23.552,33.828
	c-0.129,0.305-0.305,0.568-0.526,0.789s-0.482,0.396-0.78,0.527c-0.3,0.129-0.617,0.195-0.955,0.195
	c-0.337,0-0.657-0.066-0.96-0.195c-0.304-0.131-0.569-0.307-0.796-0.527S19.13,34.133,19,33.828
	c-0.131-0.302-0.196-0.627-0.196-0.975c0-0.337,0.065-0.655,0.196-0.955c0.13-0.298,0.308-0.559,0.534-0.779
	c0.227-0.222,0.492-0.397,0.796-0.527c0.303-0.131,0.623-0.195,0.96-0.195c0.338,0,0.655,0.064,0.955,0.195
	c0.298,0.13,0.559,0.306,0.78,0.527c0.222,0.221,0.397,0.481,0.526,0.779c0.132,0.3,0.197,0.618,0.197,0.955
	C23.75,33.201,23.684,33.526,23.552,33.828z M30.867,22.236c-0.323,0.758-0.766,1.417-1.33,1.98
	c-0.563,0.564-1.224,1.01-1.979,1.338c-0.757,0.327-1.563,0.49-2.42,0.49c-0.3,0-0.563,0.055-0.789,0.16
	c-0.226,0.105-0.414,0.252-0.564,0.441c-0.149,0.188-0.262,0.406-0.339,0.656c-0.077,0.251-0.116,0.521-0.116,0.81v1.099h-4.133
	v-1.156c0.01-0.848,0.161-1.647,0.455-2.398c0.294-0.753,0.703-1.405,1.229-1.959s1.148-0.992,1.872-1.315
	c0.723-0.323,1.519-0.483,2.386-0.483c0.289,0,0.558-0.054,0.809-0.16c0.25-0.105,0.47-0.252,0.657-0.439
	c0.188-0.189,0.337-0.41,0.448-0.666c0.11-0.254,0.166-0.527,0.166-0.816s-0.056-0.56-0.166-0.811
	c-0.111-0.249-0.261-0.469-0.448-0.656c-0.188-0.188-0.407-0.336-0.657-0.441c-0.251-0.105-0.52-0.158-0.809-0.158H15.64v-4.148
	h9.497c0.856,0,1.663,0.164,2.42,0.49c0.756,0.329,1.417,0.773,1.979,1.338c0.564,0.564,1.007,1.223,1.33,1.974
	c0.322,0.752,0.483,1.556,0.483,2.413S31.189,21.48,30.867,22.236z"/>
</svg>
