<?xml version="1.0" encoding="utf-8"?>
<!-- Generator: Adobe Illustrator 16.0.0, SVG Export Plug-In . SVG Version: 6.00 Build 0)  -->
<!DOCTYPE svg PUBLIC "-//W3C//DTD SVG 1.1//EN" "http://www.w3.org/Graphics/SVG/1.1/DTD/svg11.dtd">
<svg version="1.1" id="Layer_1" xmlns="http://www.w3.org/2000/svg" xmlns:xlink="http://www.w3.org/1999/xlink" x="0px" y="0px"
	 width="32.667px" height="33.833px" viewBox="0 0 32.667 33.833" enable-background="new 0 0 32.667 33.833" xml:space="preserve">
<path fill="#FFFFFF" d="M4.158,1c0.176,0,1.025,0.394,2.552,1.177c1.527,0.784,2.992,1.556,4.398,2.313s2.457,1.328,3.148,1.712
	l1.427-1.827l6.962,3.711l0.157,2.732l2.546,1.397v12.592c0.702,0,1.28,0.115,1.733,0.342c0.452,0.228,1.057,0.614,1.811,1.161
	c0.186,0.136,0.506,0.337,0.959,0.604c0.455,0.269,0.786,0.531,0.998,0.783c0.212,0.254,0.317,0.58,0.317,0.984
	c0,0.403-0.115,0.725-0.342,0.966c-0.227,0.245-0.586,0.496-1.077,0.754c-0.489,0.258-0.858,0.47-1.105,0.635
	c-0.444,0.331-0.895,0.657-1.349,0.977c-0.453,0.32-0.938,0.48-1.456,0.48h-3.035L1.167,21.814V3.916
	c0-0.279,0.102-0.514,0.307-0.706c0.204-0.192,0.449-0.287,0.731-0.287c0.168,0,0.478,0.093,0.931,0.282V1.882
	C3.135,1.293,3.476,1,4.158,1L4.158,1z M2.151,3.906v17.146l20.29,10.108V14.841l-2.882-1.582l-0.915,0.977l-5.24-2.796l-0.17-1.521
	L2.151,3.906L2.151,3.906z M24.223,12.606l-2.54-1.365l-0.154-2.639L16.007,5.64l-1.41,1.828L3.931,1.796v1.973l10.231,5.427
	l0.188,1.846l3.876,2.031l1.177-1.104l3.977,1.97v17.472h0.844V12.606L24.223,12.606z"/>
</svg>
