<?xml version="1.0" encoding="utf-8"?>
<!-- Generator: Adobe Illustrator 16.0.0, SVG Export Plug-In . SVG Version: 6.00 Build 0)  -->
<!DOCTYPE svg PUBLIC "-//W3C//DTD SVG 1.1//EN" "http://www.w3.org/Graphics/SVG/1.1/DTD/svg11.dtd">
<svg version="1.1" id="Layer_1" xmlns="http://www.w3.org/2000/svg" xmlns:xlink="http://www.w3.org/1999/xlink" x="0px" y="0px"
	 width="45.517px" height="46.5px" viewBox="0 0 45.517 46.5" enable-background="new 0 0 45.517 46.5" xml:space="preserve">
<path fill="#FFFFFF" d="M22.695,2.384c-11.522,0-20.863,9.342-20.863,20.866c0,11.523,9.341,20.866,20.863,20.866
	c11.524,0,20.867-9.343,20.867-20.866C43.562,11.726,34.219,2.384,22.695,2.384z M22.695,43.116c-6.801,0-12.843-3.255-16.653-8.293
	h0.151c-0.008-0.918,0.506-1.524,1.321-1.921c2.378-1.152,4.764-2.291,7.148-3.432c0.35-0.167,0.694-0.362,1.062-0.467
	c1.146-0.323,1.544-1.19,1.679-2.247c0.048-0.384,0.084-0.706,0.602-0.66c0.081,0.007,0.246-0.203,0.262-0.326
	c0.083-0.651,0.143-1.307,0.185-1.962c0.011-0.175-0.042-0.363-0.106-0.529c-0.396-1.018-0.803-2.029-1.207-3.043
	c-0.05-0.123-0.075-0.313-0.165-0.354c-0.71-0.326-0.718-1.009-0.841-1.624c-0.079-0.396-0.159-0.806-0.131-1.201
	c0.021-0.288,0.228-0.56,0.34-0.844c0.075-0.19,0.188-0.393,0.181-0.585c-0.05-1.33-0.034-2.672-0.218-3.984
	c-0.203-1.434,0.672-2.881,2.189-3.41c0.917-0.321,1.896-0.453,2.837-0.717c1.276-0.357,2.559-0.716,3.808-1.161
	c0.54-0.191,1.001-0.598,1.544-0.935c0.466,0.902,0.901,1.852,1.071,2.91c0.034,0.211,0.138,0.448,0.285,0.597
	c0.755,0.756,1.157,1.601,1.042,2.716c-0.136,1.324-0.165,2.657-0.206,3.987c-0.006,0.213,0.18,0.427,0.256,0.647
	c0.106,0.307,0.28,0.623,0.269,0.929c-0.023,0.551-0.161,1.098-0.258,1.644c-0.071,0.414-0.235,0.761-0.631,0.98
	c-0.122,0.068-0.192,0.258-0.252,0.405c-0.41,1.011-0.813,2.024-1.208,3.042c-0.064,0.166-0.117,0.355-0.106,0.529
	c0.045,0.655,0.099,1.312,0.195,1.96c0.019,0.132,0.233,0.322,0.365,0.329c0.327,0.014,0.4,0.169,0.479,0.452
	c0.175,0.623,0.39,1.237,0.635,1.835c0.064,0.153,0.287,0.266,0.46,0.346c2.672,1.246,5.346,2.482,8.018,3.727
	c0.304,0.143,0.583,0.336,0.883,0.492c0.777,0.407,1.233,0.997,1.219,1.863h0.161C35.548,39.855,29.502,43.116,22.695,43.116z"/>
</svg>
