<?xml version="1.0" encoding="utf-8"?>
<!-- Generator: Adobe Illustrator 16.0.0, SVG Export Plug-In . SVG Version: 6.00 Build 0)  -->
<!DOCTYPE svg PUBLIC "-//W3C//DTD SVG 1.1//EN" "http://www.w3.org/Graphics/SVG/1.1/DTD/svg11.dtd">
<svg version="1.1" id="Layer_1" xmlns="http://www.w3.org/2000/svg" xmlns:xlink="http://www.w3.org/1999/xlink" x="0px" y="0px"
	 width="45.518px" height="46.5px" viewBox="0 0 45.518 46.5" enable-background="new 0 0 45.518 46.5" xml:space="preserve">
<g>
	<g>
		<path fill="#FFFFFF" d="M36.795,25.115c0,5.003-4.052,9.054-9.053,9.054c-4.996,0-9.05-4.051-9.05-9.054
			c0-5,4.054-9.054,9.05-9.054C32.743,16.062,36.795,20.115,36.795,25.115L36.795,25.115z"/>
		<path fill="#FFFFFF" d="M36.795,25.115c0,5.003-4.052,9.054-9.053,9.054c-4.996,0-9.05-4.051-9.05-9.054
			c0-5,4.054-9.054,9.05-9.054C32.743,16.062,36.795,20.115,36.795,25.115L36.795,25.115z"/>
		<path fill="#FFFFFF" d="M34.165,13.413l0.041-3.694H20.517l0.065,3.694H8.059v-2.192H2.29v2.192v0.729v4.492h16.652
			c2.061-2.74,5.328-4.518,9.021-4.518c3.689,0,6.955,1.778,9.02,4.518h6.244v-5.221H34.165L34.165,13.413z"/>
		<path fill="#FFFFFF" d="M35.295,37.684h7.932V20.159l0,0h-5.16c0.726,1.495,1.143,3.174,1.143,4.948
			c0,6.294-5.098,11.388-11.385,11.388c-6.289,0-11.384-5.094-11.384-11.388c0-1.774,0.414-3.453,1.141-4.948H2.576v17.524h17.212
			H35.295z"/>
	</g>
</g>
</svg>
