<?xml version="1.0" encoding="utf-8"?>
<!-- Generator: Adobe Illustrator 16.0.0, SVG Export Plug-In . SVG Version: 6.00 Build 0)  -->
<!DOCTYPE svg PUBLIC "-//W3C//DTD SVG 1.1//EN" "http://www.w3.org/Graphics/SVG/1.1/DTD/svg11.dtd">
<svg version="1.1" id="Layer_1" xmlns="http://www.w3.org/2000/svg" xmlns:xlink="http://www.w3.org/1999/xlink" x="0px" y="0px"
	 width="45.517px" height="46.5px" viewBox="0 0 45.517 46.5" enable-background="new 0 0 45.517 46.5" xml:space="preserve">
<g>
	<polygon fill="#FFFFFF" points="11.377,16.616 11.377,30.056 18.083,23.242 	"/>
	<path fill="#FFFFFF" d="M25.059,25.644c-0.644,0.638-1.43,0.956-2.36,0.956c-0.93,0-1.717-0.318-2.36-0.956l-1.1-1.087
		l-6.734,6.733h20.388l-6.732-6.733L25.059,25.644z"/>
	<path fill="#FFFFFF" d="M22.699,24.736c0.356,0,0.912-0.375,1.662-1.126l8.585-8.579H12.452l8.584,8.579
		C21.787,24.361,22.34,24.736,22.699,24.736z"/>
	<polygon fill="#FFFFFF" points="34.019,30.056 34.019,16.616 27.313,23.242 	"/>
	<path fill="#FFFFFF" d="M22.695,2.384c-11.522,0-20.863,9.342-20.863,20.866c0,11.523,9.341,20.866,20.863,20.866
		c11.524,0,20.867-9.343,20.867-20.866C43.562,11.726,34.219,2.384,22.695,2.384z M35.517,31.301c0,0.605-0.118,1.021-0.35,1.251
		c-0.233,0.231-0.62,0.347-1.158,0.347H11.384c-0.413,0-0.754-0.115-1.024-0.347c-0.322-0.282-0.484-0.7-0.484-1.251V15.065
		c0-0.397,0.157-0.74,0.472-1.03c0.313-0.288,0.66-0.434,1.037-0.434h22.625c0.502,0,0.879,0.136,1.131,0.406
		c0.251,0.271,0.377,0.623,0.377,1.058V31.301z"/>
</g>
</svg>
